<?xml version="1.0" encoding="UTF-8" standalone="no"?>
<!-- Created with Inkscape (http://www.inkscape.org/) -->

<svg
   width="46.002293mm"
   height="39.228863mm"
   viewBox="0 0 46.002293 39.228863"
   version="1.1"
   id="svg5"
   xmlns="http://www.w3.org/2000/svg"
   xmlns:svg="http://www.w3.org/2000/svg">
  <defs
     id="defs2" />
  <g
     id="layer1"
     transform="translate(-71.880116,-68.650466)">
    <g
       aria-label="α"
       id="text3091"
       style="font-weight:bold;font-size:70.5556px;line-height:1.25;font-family:Comfortaa;-inkscape-font-specification:'Comfortaa Bold';stroke-width:0.264583">
      <path
         d="m 90.577351,107.80883 q -5.080004,0 -9.31334,-2.46945 -4.233336,-2.46945 -6.843893,-6.843893 -2.540002,-4.445003 -2.540002,-10.230563 0,-5.362226 2.328335,-9.807229 2.328335,-4.445003 6.561671,-7.126116 4.233336,-2.681113 9.94834,-2.681113 7.690561,0 12.206118,4.303892 4.51556,4.303892 6.70278,12.700009 l -4.86833,3.033891 q -1.83445,-5.78556 -4.02167,-8.678339 -2.187226,-2.963336 -4.727228,-4.02167 -2.469446,-1.058334 -5.362226,-1.058334 -3.52778,0 -6.208893,1.834446 -2.681113,1.76389 -4.16278,4.797781 -1.481668,2.963335 -1.481668,6.632226 0,3.739447 1.622779,6.773338 1.622779,3.033891 4.303892,4.797781 2.751668,1.693333 5.997226,1.693333 3.175002,0 5.503337,-1.41111 2.398891,-1.411112 4.233341,-3.880558 1.83444,-2.469446 3.31611,-5.644449 1.48167,-3.175002 2.82222,-6.632226 l 2.61056,7.972783 q -1.69333,3.316113 -3.38667,6.208893 -1.62278,2.892777 -3.66889,5.080007 -1.97556,2.18722 -4.797781,3.45722 -2.751669,1.19945 -6.773338,1.19945 z m 24.059459,0.0705 q -2.61056,0 -3.52778,-2.46944 l -6.56167,-17.56835 5.00945,-3.951113 8.11389,19.402793 q 0.14111,0.21166 0.14111,0.56444 0.0706,0.35278 0.0706,0.49389 0,1.55222 -0.84667,2.54 -0.84667,0.98778 -2.39889,0.98778 z m -6.13834,-15.028342 -4.09222,-6.632226 6.20889,-14.887233 q 0.49389,-1.199445 1.34056,-1.76389 0.84667,-0.635 2.18722,-0.564445 1.55223,0.07056 2.54,1.058334 0.98778,0.987779 0.84667,2.540002 0,0.141111 -0.0705,0.493889 -0.0706,0.352778 -0.21167,0.564445 z"
         id="path4655" />
    </g>
    <circle
       id="path4698"
       cx="82.699463"
       cy="84.373726"
       r="1.8729748"
       style="stroke-width:0.264583" />
  </g>
</svg>
